# xmcd CD database file
#
# Track frame offsets:
#	150
#	24841
#	56020
#	90272
#	135486
#	160604
#	206569
#	240446
#	275331
#
# Disc length: 4045 seconds
#
# Revision: 0
# Processed by: cddbd v1.5.1PL0 Copyright (c) Steve Scherf et al.
# Submitted via: CDex 1.51
#
DISCID=640fcb09
DTITLE=Mito - Mito live
DYEAR=2003
DGENRE=Jazz
TTITLE0=The Journey Goes On
TTITLE1=Dance With Us
TTITLE2=Banana Pie
TTITLE3=Luzie The Cat
TTITLE4=Story Of Love
TTITLE5=Rush Hour
TTITLE6=Home Again
TTITLE7=Searching For You
TTITLE8=The Journey Goes On
EXTD=YEAR: 2003
EXTT0=
EXTT1=
EXTT2=
EXTT3=
EXTT4=
EXTT5=
EXTT6=
EXTT7=
EXTT8=
PLAYORDER=
